<svg width="680" height="440" viewBox="0 0 680 440" xmlns="http://www.w3.org/2000/svg" role="img">
<title>ResNet drawn as a node-and-wire network diagram</title>
<desc>An input layer of blue nodes feeds two residual blocks of teal weight layers. Dashed arcs jump over each block and meet plus junctions where the skipped input is added to the block output, before reaching the output layer.</desc>
<defs>
<marker id="arrow" viewBox="0 0 10 10" refX="8" refY="5" markerWidth="6" markerHeight="6" orient="auto-start-reverse">
<path d="M2 1L8 5L2 9" fill="none" stroke="#1D9E75" stroke-width="1.5" stroke-linecap="round" stroke-linejoin="round"/>
</marker>
</defs>
<style>
text { font-family: "Helvetica Neue", Arial, sans-serif; }
.ts { font-size: 12px; fill: #5F5E5A; font-weight: 400; }
.th { font-size: 14px; fill: #2C2C2A; font-weight: 500; }
</style>

<rect x="0" y="0" width="680" height="440" fill="#FFFFFF"/>

<text class="ts" x="340" y="26" text-anchor="middle">Dashed arcs = skip connections carrying x forward untouched</text>

<path d="M 60 128 C 120 35, 285 35, 330 232" fill="none" stroke="#1D9E75" stroke-width="1.5" stroke-dasharray="6 4" marker-end="url(#arrow)"/>
<path d="M 342 232 C 395 45, 515 45, 564 232" fill="none" stroke="#1D9E75" stroke-width="1.5" stroke-dasharray="6 4" marker-end="url(#arrow)"/>

<rect x="139" y="120" width="159" height="255" rx="12" fill="none" stroke="#888780" stroke-width="0.5" stroke-dasharray="4 4"/>
<rect x="374" y="120" width="159" height="255" rx="12" fill="none" stroke="#888780" stroke-width="0.5" stroke-dasharray="4 4"/>

<g stroke="#B4B2A9" stroke-width="0.6" opacity="0.5">
<line x1="69" y1="150" x2="151" y2="150"/><line x1="69" y1="150" x2="151" y2="215"/><line x1="69" y1="150" x2="151" y2="280"/><line x1="69" y1="150" x2="151" y2="345"/>
<line x1="69" y1="215" x2="151" y2="150"/><line x1="69" y1="215" x2="151" y2="215"/><line x1="69" y1="215" x2="151" y2="280"/><line x1="69" y1="215" x2="151" y2="345"/>
<line x1="69" y1="280" x2="151" y2="150"/><line x1="69" y1="280" x2="151" y2="215"/><line x1="69" y1="280" x2="151" y2="280"/><line x1="69" y1="280" x2="151" y2="345"/>
<line x1="69" y1="345" x2="151" y2="150"/><line x1="69" y1="345" x2="151" y2="215"/><line x1="69" y1="345" x2="151" y2="280"/><line x1="69" y1="345" x2="151" y2="345"/>
<line x1="179" y1="150" x2="256" y2="150"/><line x1="179" y1="150" x2="256" y2="215"/><line x1="179" y1="150" x2="256" y2="280"/><line x1="179" y1="150" x2="256" y2="345"/>
<line x1="179" y1="215" x2="256" y2="150"/><line x1="179" y1="215" x2="256" y2="215"/><line x1="179" y1="215" x2="256" y2="280"/><line x1="179" y1="215" x2="256" y2="345"/>
<line x1="179" y1="280" x2="256" y2="150"/><line x1="179" y1="280" x2="256" y2="215"/><line x1="179" y1="280" x2="256" y2="280"/><line x1="179" y1="280" x2="256" y2="345"/>
<line x1="179" y1="345" x2="256" y2="150"/><line x1="179" y1="345" x2="256" y2="215"/><line x1="179" y1="345" x2="256" y2="280"/><line x1="179" y1="345" x2="256" y2="345"/>
<line x1="284" y1="150" x2="323" y2="247"/><line x1="284" y1="215" x2="323" y2="247"/><line x1="284" y1="280" x2="323" y2="247"/><line x1="284" y1="345" x2="323" y2="247"/>
<line x1="347" y1="247" x2="386" y2="150"/><line x1="347" y1="247" x2="386" y2="215"/><line x1="347" y1="247" x2="386" y2="280"/><line x1="347" y1="247" x2="386" y2="345"/>
<line x1="414" y1="150" x2="491" y2="150"/><line x1="414" y1="150" x2="491" y2="215"/><line x1="414" y1="150" x2="491" y2="280"/><line x1="414" y1="150" x2="491" y2="345"/>
<line x1="414" y1="215" x2="491" y2="150"/><line x1="414" y1="215" x2="491" y2="215"/><line x1="414" y1="215" x2="491" y2="280"/><line x1="414" y1="215" x2="491" y2="345"/>
<line x1="414" y1="280" x2="491" y2="150"/><line x1="414" y1="280" x2="491" y2="215"/><line x1="414" y1="280" x2="491" y2="280"/><line x1="414" y1="280" x2="491" y2="345"/>
<line x1="414" y1="345" x2="491" y2="150"/><line x1="414" y1="345" x2="491" y2="215"/><line x1="414" y1="345" x2="491" y2="280"/><line x1="414" y1="345" x2="491" y2="345"/>
<line x1="519" y1="150" x2="553" y2="247"/><line x1="519" y1="215" x2="553" y2="247"/><line x1="519" y1="280" x2="553" y2="247"/><line x1="519" y1="345" x2="553" y2="247"/>
<line x1="577" y1="247" x2="606" y2="180"/><line x1="577" y1="247" x2="606" y2="247"/><line x1="577" y1="247" x2="606" y2="314"/>
</g>

<g fill="#E6F1FB" stroke="#185FA5" stroke-width="0.5">
<circle cx="55" cy="150" r="14"/><circle cx="55" cy="215" r="14"/><circle cx="55" cy="280" r="14"/><circle cx="55" cy="345" r="14"/>
</g>
<g fill="#E1F5EE" stroke="#0F6E56" stroke-width="0.5">
<circle cx="165" cy="150" r="14"/><circle cx="165" cy="215" r="14"/><circle cx="165" cy="280" r="14"/><circle cx="165" cy="345" r="14"/>
<circle cx="270" cy="150" r="14"/><circle cx="270" cy="215" r="14"/><circle cx="270" cy="280" r="14"/><circle cx="270" cy="345" r="14"/>
<circle cx="400" cy="150" r="14"/><circle cx="400" cy="215" r="14"/><circle cx="400" cy="280" r="14"/><circle cx="400" cy="345" r="14"/>
<circle cx="505" cy="150" r="14"/><circle cx="505" cy="215" r="14"/><circle cx="505" cy="280" r="14"/><circle cx="505" cy="345" r="14"/>
</g>
<g>
<circle cx="335" cy="247" r="12" fill="#FAEEDA" stroke="#854F0B" stroke-width="0.5"/>
<text x="335" y="252" text-anchor="middle" style="font-family: 'Helvetica Neue', Arial, sans-serif; font-size: 14px; font-weight: 500; fill: #633806;">+</text>
<circle cx="565" cy="247" r="12" fill="#FAEEDA" stroke="#854F0B" stroke-width="0.5"/>
<text x="565" y="252" text-anchor="middle" style="font-family: 'Helvetica Neue', Arial, sans-serif; font-size: 14px; font-weight: 500; fill: #633806;">+</text>
</g>
<g fill="#E6F1FB" stroke="#185FA5" stroke-width="0.5">
<circle cx="620" cy="180" r="14"/><circle cx="620" cy="247" r="14"/><circle cx="620" cy="314" r="14"/>
</g>

<text class="ts" x="55" y="110" text-anchor="middle">Input</text>
<text class="ts" x="620" y="160" text-anchor="middle">Output</text>
<text class="ts" x="218" y="395" text-anchor="middle">Residual block 1: learns F1(x)</text>
<text class="ts" x="453" y="395" text-anchor="middle">Residual block 2: learns F2(x)</text>
<text class="ts" x="340" y="420" text-anchor="middle">Each + junction adds the skipped copy of x to the block's output F(x)</text>
<text class="ts" x="648" y="436" text-anchor="end">Generated by Claude</text>
</svg>
